<?xml version="1.0" standalone="no"?>
<!DOCTYPE svg PUBLIC "-//W3C//DTD SVG 20010904//EN"
 "http://www.w3.org/TR/2001/REC-SVG-20010904/DTD/svg10.dtd">
<svg version="1.0" xmlns="http://www.w3.org/2000/svg"
 width="128.000000pt" height="128.000000pt" viewBox="0 0 128.000000 128.000000"
 preserveAspectRatio="xMidYMid meet">

<g transform="translate(0.000000,128.000000) scale(0.100000,-0.100000)"
fill="#000000" stroke="none">
<path d="M209 797 c-58 -39 -81 -83 -77 -148 7 -100 83 -166 180 -157 59 6 74
18 59 46 -10 18 -18 20 -61 15 -47 -5 -51 -4 -85 30 -28 28 -35 43 -35 75 0
73 64 120 138 100 28 -8 36 -6 48 9 19 25 18 28 -11 41 -44 20 -118 15 -156
-11z"/>
<path d="M475 730 c-3 -6 1 -13 10 -16 19 -8 30 0 20 15 -8 14 -22 14 -30 1z"/>
<path d="M872 668 c2 -49 7 -63 20 -66 12 -2 18 5 21 30 l4 33 1 -33 c2 -26 6
-33 20 -30 13 2 17 13 17 43 0 32 -5 42 -22 50 -13 5 -23 15 -23 22 0 7 -9 13
-20 13 -19 0 -21 -5 -18 -62z"/>
<path d="M378 689 c-36 -20 -12 -89 31 -89 21 0 51 30 51 52 0 18 -31 48 -51
48 -8 0 -22 -5 -31 -11z m42 -39 c0 -5 -4 -10 -10 -10 -5 0 -10 5 -10 10 0 6
5 10 10 10 6 0 10 -4 10 -10z"/>
<path d="M470 650 c0 -43 3 -50 20 -50 17 0 20 7 20 50 0 43 -3 50 -20 50 -17
0 -20 -7 -20 -50z"/>
<path d="M542 688 c-18 -18 -16 -88 3 -88 10 0 15 10 15 30 0 17 5 30 10 30 6
0 10 -13 10 -30 0 -20 5 -30 15 -30 11 0 15 11 15 38 0 40 -14 62 -40 62 -9 0
-21 -5 -28 -12z"/>
<path d="M641 686 c-21 -26 -9 -69 22 -80 39 -14 62 9 23 24 -28 10 -31 31 -5
38 11 3 12 2 1 -6 -11 -7 -7 -11 12 -14 33 -7 39 3 20 30 -17 25 -56 29 -73 8z"/>
<path d="M752 688 c-18 -18 -16 -88 2 -88 19 0 22 6 31 58 7 44 -6 57 -33 30z"/>
<path d="M828 689 c-10 -5 -18 -19 -18 -29 0 -11 -4 -20 -10 -20 -5 0 -10 -9
-10 -20 0 -38 42 -21 59 23 20 52 13 67 -21 46z"/>
<path d="M986 684 c-9 -8 -16 -23 -16 -33 0 -21 30 -51 52 -51 19 0 48 32 48
53 0 21 -27 47 -50 47 -10 0 -26 -7 -34 -16z m44 -34 c0 -5 -4 -10 -10 -10 -5
0 -10 5 -10 10 0 6 5 10 10 10 6 0 10 -4 10 -10z"/>
</g>
</svg>
